<svg width="221" height="41" viewBox="0 0 221 41" fill="none" role="img" aria-label="BRICK" xmlns="http://www.w3.org/2000/svg"><title>BRICK</title>
<path fill-rule="evenodd" clip-rule="evenodd" d="M190.02 20.2738H193.955L206.292 8.82005H218.805L202.129 24.0325L221 39.6488H207.907L193.955 27.9687H190.02V39.6488H180.61V8.82005H190.02V20.2738ZM165.397 19.9204V19.6176C165.397 18.407 164.993 17.5489 164.187 16.9938C163.404 16.4133 162.143 16.1617 160.428 16.1617H152.884C149.655 16.1617 147.587 16.5402 146.678 17.3218C145.745 18.1034 145.291 19.7186 145.291 22.1903V26.4797C145.291 28.6998 145.795 30.2385 146.83 31.0706C147.838 31.8789 149.857 32.3072 152.884 32.3072H158.359C161.361 32.3072 163.303 32.0044 164.237 31.3987C165.17 30.7937 165.65 29.684 165.65 28.0689V27.7156H175.186C175.186 27.7661 175.186 27.8418 175.211 27.9427C175.236 28.8505 175.262 29.5074 175.262 29.9609C175.262 31.9539 175.009 33.569 174.505 34.8553C174.025 36.1424 173.244 37.1764 172.184 37.9587C171.175 38.6898 169.837 39.2198 168.147 39.5479C166.482 39.8507 164.01 40.0273 160.78 40.0273H150.26C147.032 40.0273 144.685 39.8507 143.147 39.4974C141.632 39.1693 140.346 38.5636 139.261 37.7309C138.025 36.7473 137.117 35.5619 136.562 34.1242C135.982 32.6857 135.704 30.894 135.704 28.6998V20.299C135.704 15.8834 136.764 12.8067 138.858 11.0654C140.952 9.29953 144.761 8.44151 150.26 8.44151H160.78C164.161 8.44151 166.634 8.59292 168.248 8.89575C169.838 9.19859 171.099 9.70331 172.032 10.4099C173.016 11.1663 173.748 12.1751 174.202 13.4369C174.656 14.698 174.883 16.2871 174.883 18.1799V19.2391C174.883 19.4662 174.858 19.6933 174.833 19.9204H165.397ZM129.246 39.6488H119.835V8.82005H129.246V39.6488ZM100.864 8.82005C105.759 8.82005 109.088 9.5519 110.854 10.9897C112.621 12.4534 113.503 15.0765 113.503 18.9117C113.503 21.5853 113.099 23.553 112.318 24.8653C111.536 26.1517 110.199 27.0349 108.357 27.4639C109.997 27.867 111.207 28.5484 112.015 29.5074C112.848 30.4909 113.251 31.7772 113.251 33.3159V39.6488H103.816V34.931C103.816 33.7206 103.538 32.8881 102.983 32.4334C102.403 31.9791 101.268 31.752 99.5778 31.752H85.5507V39.6488H76.0907V8.82005H100.864ZM100.511 16.4897H85.5507V24.0325H100.511C101.773 24.0325 102.655 23.7297 103.16 23.15C103.665 22.5691 103.917 21.5092 103.917 19.9702C103.917 18.7603 103.639 17.877 103.109 17.3218C102.579 16.7666 101.697 16.4897 100.511 16.4897ZM60.5501 39.6488H31.3358V8.82005H59.1116C62.5433 8.82005 65.1167 9.52642 66.8318 10.9392C68.5219 12.3769 69.3547 14.5213 69.3547 17.4228C69.3547 19.0624 69.0014 20.3999 68.2696 21.4591C67.5125 22.5191 66.3775 23.3519 64.8136 23.9316C66.7561 24.2597 68.1938 25.0167 69.0771 26.1769C69.9849 27.3623 70.4392 29.0784 70.4392 31.2984C70.4392 34.1997 69.6571 36.3188 68.0929 37.6558C66.529 38.9674 64.0061 39.6488 60.5501 39.6488ZM57.2701 20.8037C58.0777 20.8037 58.6581 20.6018 59.0864 20.1721C59.4902 19.7188 59.6921 19.0881 59.6921 18.2801C59.6921 17.5237 59.4649 16.8935 59.0359 16.4386C58.5824 15.9598 58.0019 15.7319 57.2701 15.7319H40.746V20.8037H57.2701ZM58.1281 32.6353C58.9602 32.6353 59.5911 32.3829 60.0454 31.9041C60.4996 31.4239 60.7268 30.7173 60.7268 29.8102C60.7268 28.9774 60.4744 28.3213 60.0201 27.8166C59.5407 27.3371 58.9104 27.0854 58.1281 27.0854H40.746V32.6353H58.1281Z" fill="#EE7517"/>
<path d="M18.0431 40.0667H24.6831V33.187H18.0431V40.0667ZM18.0431 31.9322H24.6831V25.0532H18.0431V31.9322ZM18.0431 23.8489H24.6831V16.9693H18.0431V23.8489ZM18.0431 15.8168H24.6831V8.93715H18.0431V15.8168ZM16.9832 8.93715L8.60412 4.52364V11.4033L16.9832 15.8168V8.93715ZM7.62622 4.02243L0 6.10352e-05V6.87902L7.62622 10.9021V4.02243ZM8.60412 20.6383V27.5187L16.9832 31.9322V25.0518L8.60412 20.6383ZM7.62622 20.1371L0 16.1147V22.9951L7.62622 27.0175V20.1371ZM0 8.03217V14.9118L16.9832 23.8489V16.9693L0 8.03217ZM0 24.2499L16.9832 33.187V40.0667L0 31.1295V24.2499Z" fill="#EE7517"/>
</svg>
